<?xml version="1.0" encoding="utf-8"?>
<svg xmlns="http://www.w3.org/2000/svg" width="136" height="105" viewBox="0 0 136 105" fill="none">
<path d="M56.1353 58.3669L47.627 64.5478L57.9871 72.0759L61.236 62.0745L56.1353 58.3669Z" fill="black"/>
<path d="M59.5176 73.1893L68.0256 79.3694L76.5287 73.1893L68.0256 67.0059L59.5176 73.1893Z" fill="black"/>
<path d="M63.8148 54.0892L32.623 31.4244L39.9043 46.5768L50.2491 54.0892H63.8148Z" fill="black"/>
<path d="M67.0796 44.0964L23.5 12.4318L30.7805 27.5871L64.4847 52.0753L67.0796 44.0964Z" fill="black"/>
<path d="M29.6783 0L24.54 10.692L40.33 22.1636L29.6783 0Z" fill="black"/>
<path d="M74.8115 62.0745L78.063 72.0759L88.4194 64.5478L79.9103 58.3669L74.8115 62.0745Z" fill="black"/>
<path d="M85.7988 54.0892L96.1436 46.5768L103.422 31.4244L72.2334 54.0892H85.7988Z" fill="black"/>
<path d="M68.9697 44.0964L71.5609 52.0753L105.265 27.5871L112.548 12.4318L68.9697 44.0964Z" fill="black"/>
<path d="M106.37 0L95.7148 22.1636L111.507 10.692L106.37 0Z" fill="black"/>
<path d="M63.2988 59.8581C63.2988 57.2491 65.4153 55.1311 68.0277 55.1311C70.6341 55.1311 72.7547 57.2491 72.7547 59.8581C72.7547 62.4701 70.6341 64.5862 68.0277 64.5862C65.4153 64.5859 63.2988 62.4701 63.2988 59.8581Z" fill="black"/>
<path d="M0.881836 94.7262H4.30226V100.169C4.30226 100.766 4.35671 101.201 4.57372 101.567C5.00813 102.313 5.87656 102.517 6.569 102.517C7.46466 102.517 7.98035 102.205 8.21117 101.988C8.79435 101.445 8.80852 100.576 8.80852 100.115V94.7266H12.2286V99.7481C12.2286 100.875 12.2021 102.056 11.6726 102.87C10.6274 104.499 8.10303 104.648 6.5828 104.648C4.45179 104.648 3.24403 104.349 2.52474 103.916C1.03173 103.182 0.882581 101.663 0.882581 100.889V94.7262H0.881836Z" fill="black"/>
<path d="M13.1426 101.811H16.2643V104.308H13.1426V101.811Z" fill="black"/>
<path d="M21.4936 97.1961C21.4936 97.3322 21.5343 97.4542 21.6021 97.5358C21.8329 97.8345 22.7965 98.0511 23.326 98.16C23.9778 98.3088 24.6426 98.4315 25.2936 98.5803C25.7146 98.6619 26.1218 98.7574 26.529 98.9199C27.8046 99.395 28.2122 100.345 28.2122 101.214C28.2122 101.852 27.9948 102.435 27.7099 102.856C26.909 104.064 25.2936 104.593 22.7148 104.593C21.7513 104.593 19.8377 104.512 18.7116 103.507C17.8834 102.774 17.7611 101.892 17.707 101.458L21.0864 101.363C21.2084 101.987 21.8464 102.462 23.2037 102.462C23.5568 102.462 24.0587 102.421 24.398 102.232C24.6288 102.096 24.873 101.824 24.873 101.499C24.873 101.051 24.5069 100.86 24.2354 100.766C23.8144 100.63 21.6566 100.25 21.1812 100.141C20.8016 100.059 20.4484 99.9648 20.0823 99.8425C19.7161 99.7067 18.1817 99.1634 18.1817 97.4128C18.1817 96.6931 18.4808 96.0283 18.9554 95.5398C20.0275 94.4271 21.9553 94.3186 23.0135 94.3186C24.181 94.3186 25.335 94.4812 25.9316 94.6844C27.7233 95.2549 27.9541 96.5988 28.0496 97.1145L24.6836 97.3046C24.602 96.9918 24.439 96.422 23.0004 96.422C22.5522 96.422 21.4936 96.4903 21.4936 97.1961Z" fill="black"/>
<path d="M29.3271 101.811H32.4489V104.308H29.3271V101.811Z" fill="black"/>
<path d="M44.9109 100.63H42.6852L43.7844 97.3867L44.9109 100.63ZM37.6904 104.308H41.4502L41.9659 102.747H45.6305L46.1462 104.308H49.8791L45.7252 94.7262H41.8167L37.6904 104.308Z" fill="black"/>
<path d="M54.5856 94.7262V104.308H51.1514V94.7262H54.5856Z" fill="black"/>
<path d="M60.5696 96.8979H63.4203C63.6779 96.8979 64.0307 96.9243 64.3021 97.1697C64.4789 97.3326 64.5467 97.5631 64.5467 97.7805C64.5467 98.6355 63.6779 98.6489 63.1484 98.6489H60.5696V96.8979ZM57.1357 104.308H60.5696V100.821H62.4019L64.3696 104.308H68.1704L65.7679 100.481C66.1751 100.372 66.8265 100.236 67.3694 99.5852C67.7636 99.1105 67.9806 98.4446 67.9806 97.7663C67.9806 96.8024 67.5462 95.8665 66.8537 95.3366C66.0532 94.7527 65.0214 94.7389 64.1802 94.7258H57.1357V104.308Z" fill="black"/>
<path d="M73.2933 94.7262H82.6854V96.8841H76.7272V98.7164H82.1966V100.861H76.7272V104.308H73.293V94.7262H73.2933Z" fill="black"/>
<path d="M90.3756 96.5038C92.7232 96.531 93.1852 98.4584 93.1852 99.5036C93.1852 100.467 92.8191 101.716 91.7601 102.245C91.3395 102.463 90.8506 102.517 90.3756 102.517C88.2994 102.517 87.4981 100.984 87.4981 99.504C87.4981 98.1873 88.2177 96.4769 90.3756 96.5038ZM90.172 94.3728C88.475 94.4 86.1952 94.7124 84.8517 96.613C84.2402 97.4807 83.9688 98.5401 83.9688 99.6125C83.9688 100.712 84.2268 101.635 84.8782 102.503C85.5841 103.467 86.9551 104.647 90.2939 104.647C92.0308 104.647 93.5782 104.404 94.8815 103.372C95.3423 103.019 95.7227 102.585 96.0217 102.082C96.4964 101.295 96.7142 100.372 96.7142 99.4767C96.7142 97.8346 95.9404 95.8251 93.7408 94.9302C92.6423 94.4813 91.3659 94.3597 90.172 94.3728Z" fill="black"/>
<path d="M102.061 96.8979H104.912C105.17 96.8979 105.523 96.9243 105.794 97.1697C105.971 97.3326 106.038 97.5631 106.038 97.7805C106.038 98.6355 105.17 98.6489 104.64 98.6489H102.061V96.8979ZM98.627 104.308H102.061V100.821H103.894L105.862 104.308H109.662L107.259 100.481C107.667 100.372 108.318 100.236 108.861 99.5852C109.255 99.1105 109.472 98.4446 109.472 97.7663C109.472 96.8024 109.038 95.8665 108.345 95.3366C107.545 94.7527 106.513 94.7389 105.672 94.7258H98.627V104.308Z" fill="black"/>
<path d="M114.657 99.5173C114.657 100.97 115.512 102.476 117.48 102.476C118.227 102.476 118.919 102.245 119.421 101.838C119.869 101.472 120.005 101.16 120.113 100.874L123.384 101.214C123.275 101.567 123.153 101.919 122.841 102.408C121.714 104.145 119.516 104.634 117.412 104.634C116.475 104.634 115.552 104.552 114.67 104.281C112.702 103.67 111.073 102.164 111.073 99.5311C111.073 97.6712 112.05 94.319 117.506 94.319C122.161 94.319 122.895 96.4362 123.207 97.3456L120.031 97.9158C119.896 97.6439 119.732 97.2774 119.23 96.9519C118.714 96.626 118.076 96.5171 117.588 96.5171C116.041 96.5171 114.657 97.4806 114.657 99.5173Z" fill="black"/>
<path d="M134.983 94.7262V96.8841H128.319V98.4449H134.481V100.617H128.305V102.137H135.118V104.308H124.885V94.7262H134.983Z" fill="black"/>
</svg>