<?xml version="1.0" encoding="utf-8"?>
<svg xmlns="http://www.w3.org/2000/svg" width="152" height="48" viewBox="0 0 152 48" fill="none">
<path fill-rule="evenodd" clip-rule="evenodd" d="M25.3049 39.6879C24.4369 38.6685 22.9895 38.5008 21.7359 38.5559C20.6278 38.6332 19.5086 38.9553 18.8565 39.9262C18.4335 40.5528 18.33 41.5899 18.6274 42.2784C19.0548 43.0992 19.9757 43.4677 20.8172 43.7038C21.1273 43.7939 21.4647 43.8566 21.8067 43.9202C22.444 44.0386 23.0969 44.1599 23.6173 44.4672C24.2342 44.8379 24.0646 45.8529 23.4036 46.0648C22.3748 46.3737 21.1565 46.3538 20.381 45.5065C20.3722 45.3079 20.3656 45.1093 20.359 44.9085C19.6232 44.8997 18.8895 44.8997 18.1537 44.9152L18.1751 45.0546C18.2748 45.7081 18.3658 46.3045 18.8411 46.8238C19.6915 47.7903 21.1785 48.0242 22.3968 47.9911C23.679 47.9491 25.0361 47.6137 25.7632 46.4597C26.2721 45.6036 26.369 44.1407 25.4878 43.4831C24.6307 42.8107 23.6928 42.6326 22.7274 42.4492C22.3306 42.3738 21.9291 42.2975 21.5266 42.1857C20.967 42.0378 20.3348 41.5017 20.7049 40.8816C20.8062 40.5617 21.2094 40.4491 21.4958 40.3697C22.1038 40.2484 22.7956 40.277 23.364 40.5418C23.5345 40.7 23.6195 40.9484 23.7001 41.1841C23.7331 41.2804 23.7653 41.3746 23.8024 41.4597C24.5074 41.4641 25.2146 41.4619 25.9196 41.4333L25.9131 41.3866C25.8255 40.7584 25.7456 40.1853 25.3049 39.6879ZM65.3371 41.6693C64.8436 40.7183 64.3325 39.8489 63.3808 39.2906C61.3496 37.9491 58.4437 38.4897 57.0359 40.4711C55.5819 42.4327 55.9146 45.3012 57.7762 46.8789C59.4241 48.2822 61.9003 48.3595 63.6407 47.0775C64.4603 46.5148 64.8965 45.7249 65.3327 44.8621C64.5903 44.8312 63.8478 44.8379 63.1032 44.8533C63.0607 44.9075 63.0189 44.9618 62.9773 45.0158L62.9769 45.0164C62.7406 45.3234 62.51 45.6231 62.1823 45.8462C61.1072 46.5479 59.5298 46.2633 58.8204 45.1732C58.1154 44.1009 58.1154 42.585 58.7499 41.4795C59.3844 40.3454 60.953 39.9791 62.0589 40.6234C62.4662 40.8713 62.7341 41.2189 63.0169 41.5857L63.0169 41.5857C63.0462 41.6237 63.0756 41.6619 63.1054 41.7002C63.85 41.7068 64.5925 41.7024 65.3371 41.6693ZM68.8378 38.8031C68.8642 39.9703 68.8664 41.1376 68.8422 42.3026C70.1134 42.3247 71.3846 42.3203 72.6557 42.3026C72.6082 41.4616 72.6279 40.6241 72.6476 39.785V39.7846V39.7842V39.7838V39.7834C72.6553 39.4562 72.663 39.1288 72.6667 38.8009C73.31 38.8141 73.9555 38.8163 74.5988 38.8031C74.6607 40.5784 74.6526 42.356 74.6445 44.1337C74.639 45.3322 74.6335 46.5307 74.6495 47.7285C73.9886 47.7285 73.3277 47.7329 72.6689 47.7505C72.6076 46.8246 72.6298 45.9037 72.6521 44.9802V44.9801V44.9799V44.9798V44.9797V44.9793V44.9792V44.979V44.9789C72.6594 44.6748 72.6668 44.3705 72.6712 44.0656C71.4958 44.0453 70.3205 44.0475 69.1451 44.0496L68.851 44.0502L68.8524 44.2974C68.8587 45.446 68.865 46.5929 68.8444 47.7417C68.1659 47.7263 67.4873 47.7285 66.811 47.7373C66.8176 44.7607 66.8154 41.7841 66.8088 38.8075C67.4851 38.8185 68.1615 38.8185 68.8378 38.8031ZM13.3541 38.8161C12.0878 38.8182 10.8215 38.8203 9.55515 38.8052C9.55124 40.1279 9.55254 41.4506 9.55385 42.7734V42.774C9.55548 44.4277 9.55711 46.0813 9.54854 47.735C10.7276 47.7275 11.9071 47.7288 13.087 47.7302H13.0871H13.0872H13.0873H13.0874C14.3369 47.7316 15.5866 47.733 16.8363 47.724C16.8341 47.1547 16.8363 46.5854 16.8451 46.0161C15.0905 46.0139 13.3359 46.0139 11.5812 46.0139H11.5644C11.5614 45.5775 11.5604 45.1411 11.5595 44.7054V44.705C11.559 44.4865 11.5585 44.2682 11.5577 44.0501C12.0189 44.0494 12.4798 44.0496 12.9406 44.0497H12.9419H12.942H12.942H12.9421C13.9778 44.0501 15.0127 44.0504 16.0476 44.0413C16.0454 43.4676 16.0476 42.8917 16.0542 42.3158C15.2241 42.317 14.3939 42.3148 13.5638 42.3126L13.5612 42.3126C12.8963 42.3109 12.2314 42.3091 11.5666 42.3091C11.5622 41.7178 11.56 41.1264 11.56 40.5351C12.25 40.5369 12.9401 40.5358 13.6301 40.5347C14.6651 40.5331 15.7 40.5316 16.735 40.5395L16.7361 40.1963C16.7375 39.7386 16.7389 39.28 16.746 38.8228C15.6154 38.8124 14.4847 38.8143 13.3541 38.8161ZM27.865 38.8074L28.05 38.8096L28.8316 38.812H28.8318H28.8319H28.832C30.9154 38.8183 32.9986 38.8246 35.08 38.803C35.0844 39.3789 35.0866 39.9548 35.0866 40.5307C33.3704 40.5374 31.6521 40.5418 29.9337 40.5263V40.527V40.5277V40.5285V40.5292C29.9293 41.1218 29.9248 41.7144 29.9293 42.307C30.8356 42.3164 31.7427 42.3143 32.6501 42.3123H32.6503H32.6505H32.6506C33.2342 42.311 33.8178 42.3097 34.4015 42.3114L34.4015 42.3152C34.3971 42.8942 34.3927 43.4711 34.3927 44.0501C33.2787 44.0452 32.1659 44.0477 31.0525 44.0501H31.0518H31.0512H31.049C30.6773 44.051 30.3056 44.0518 29.9337 44.0523C29.9293 44.7077 29.927 45.363 29.9293 46.0206C31.1012 46.0117 32.2741 46.0127 33.4467 46.0137H33.4468H33.4469H33.447C34.0333 46.0142 34.6196 46.0147 35.2056 46.0139C35.2012 46.5876 35.2012 47.1613 35.2078 47.735C33.1122 47.7275 31.015 47.7296 28.9175 47.7318H28.9173H28.9172H28.917L27.8672 47.7328C27.8738 44.7584 27.8782 41.7818 27.865 38.8074ZM0.0070439 38.803C0.882796 38.8196 1.75855 38.817 2.6343 38.8144H2.63521C3.27487 38.8126 3.91454 38.8107 4.5542 38.8163C5.41119 38.8538 6.2726 38.9509 6.90268 39.5952C7.6341 40.2527 7.65612 41.5016 7.45564 42.3908C7.26177 43.2006 6.67135 43.5978 5.97738 43.9619C5.98619 44.0413 5.995 44.1207 6.00382 44.2024C6.74405 45.3542 7.45564 46.5413 8.1386 47.7284C7.9062 47.7284 7.67301 47.7324 7.43957 47.7363H7.43943H7.43929H7.43915H7.43912H7.4391H7.43907C6.8893 47.7455 6.3381 47.7548 5.79232 47.713C5.29261 47.0858 4.88616 46.3816 4.47948 45.677C4.17079 45.1421 3.86198 44.6071 3.51214 44.1053C3.01645 44.1119 2.52075 44.1141 2.02506 44.1119C2.02036 44.7556 2.02068 45.3999 2.02099 46.0446C2.02126 46.6086 2.02154 47.173 2.01845 47.7373C1.34872 47.7284 0.681185 47.7306 0.0136529 47.7395C-0.00050972 45.6117 0.00218799 43.484 0.00488571 41.3563C0.0059648 40.5052 0.0070439 39.6541 0.0070439 38.803ZM2.01402 40.5373C2.34616 40.542 2.6794 40.5375 3.01286 40.5331C3.61946 40.5249 4.22681 40.5168 4.82956 40.5638C5.05496 40.6125 5.235 40.8202 5.39956 41.0101L5.39963 41.0101C5.45862 41.0782 5.51562 41.144 5.572 41.1993C5.54116 41.464 5.51251 41.7288 5.48608 41.9958C4.85913 42.507 3.9698 42.4703 3.11123 42.4348H3.1111H3.11106H3.11103C2.73572 42.4193 2.3663 42.404 2.02724 42.4349C2.02393 42.1191 2.02228 41.8027 2.02063 41.4861C2.01898 41.17 2.01733 40.8537 2.01402 40.5373ZM50.0628 38.8139H50.0621C49.1069 38.8151 48.1514 38.8164 47.1969 38.8052C47.1925 40.2924 47.1936 41.7801 47.1947 43.2679C47.1958 44.7556 47.1969 46.2434 47.1925 47.7306C47.413 47.7313 47.6338 47.7323 47.8548 47.7333L47.8566 47.7333L47.8586 47.7333C48.3051 47.7352 48.7523 47.7372 49.1995 47.7372C49.2149 46.5302 49.2149 45.3233 49.2017 44.1185L49.5015 44.1173H49.5022C49.9006 44.1159 50.2998 44.1145 50.6976 44.1075C51.0909 44.7032 51.4582 45.315 51.8256 45.9267C52.193 46.5385 52.5603 47.1503 52.9536 47.746C53.5087 47.7353 54.0638 47.7342 54.6189 47.733C54.8657 47.7325 55.1125 47.7319 55.3593 47.7306C54.5949 46.4883 53.8348 45.2416 53.0968 43.9839C53.7885 43.6463 54.3856 43.2866 54.6125 42.4989C54.8526 41.5744 54.8262 40.2505 54.0661 39.5532C53.436 38.9707 52.524 38.8294 51.7 38.814C51.1545 38.8124 50.6087 38.8131 50.0628 38.8139ZM49.9199 40.5324C49.6821 40.5307 49.4442 40.5291 49.2061 40.5285C49.2061 41.1618 49.2039 41.7929 49.1995 42.4239C49.4785 42.4225 49.758 42.4261 50.0375 42.4298H50.0377C50.5969 42.4372 51.1566 42.4445 51.7132 42.4107C52.0608 42.4056 52.2806 42.2315 52.5203 42.0416C52.5906 41.986 52.6625 41.929 52.7399 41.8745C52.7318 41.8002 52.7251 41.725 52.7184 41.6497C52.6994 41.4366 52.6802 41.2216 52.6297 41.0162C52.4876 40.8647 52.3228 40.7313 52.1604 40.5998L52.16 40.5995C52.1262 40.5722 52.0925 40.5449 52.0591 40.5175C51.3455 40.5423 50.6331 40.5374 49.92 40.5324H49.92H49.9199ZM41.4167 38.7887H41.4168C41.7198 38.7914 42.0225 38.7941 42.3237 38.7876C42.808 40.0062 43.3023 41.2211 43.7965 42.4361C44.5141 44.2 45.2317 45.9639 45.9191 47.7395C45.1723 47.7329 44.4276 47.7307 43.683 47.7329C43.4363 47.082 43.1939 46.4288 42.9626 45.7713C41.7068 45.7625 40.4511 45.7603 39.1953 45.7713C39.1119 46.0024 39.0271 46.2329 38.9423 46.4635C38.7875 46.8846 38.6326 47.3058 38.4859 47.7307H36.2322C36.4838 47.1029 36.7351 46.4733 36.9868 45.8429L36.9873 45.8417C37.9235 43.4968 38.8642 41.1407 39.8364 38.8229C40.3599 38.7795 40.8888 38.7841 41.4167 38.7887ZM41.0923 40.7293C41.4955 41.8679 41.8986 43.0042 42.3679 44.1163C41.5353 44.2004 40.7028 44.196 39.8661 44.1917L39.8057 44.1914C40.2155 43.0285 40.6539 41.8789 41.0923 40.7293Z" fill="black"/>
<path fill-rule="evenodd" clip-rule="evenodd" d="M96.8521 38.6574C98.2092 38.4169 99.8262 38.5029 100.937 39.4098C101.452 39.82 101.599 40.3987 101.751 40.9927L101.751 40.9929C101.786 41.1306 101.822 41.2692 101.862 41.4067C101.15 41.4597 100.439 41.4751 99.7249 41.4663C99.6876 41.3879 99.6528 41.3056 99.6177 41.2225L99.6177 41.2224L99.6177 41.2224L99.6177 41.2224C99.5262 41.0058 99.4323 40.7833 99.2843 40.608C98.7489 40.224 97.9139 40.2505 97.3015 40.3961C96.9093 40.5043 96.4313 40.8198 96.4974 41.2876C96.4533 41.8282 97.0922 42.0753 97.513 42.2055C97.8681 42.301 98.2325 42.3716 98.5967 42.4422C99.6043 42.6374 100.611 42.8325 101.417 43.5537C102.435 44.3789 102.087 46.0073 101.36 46.9054C100.5 47.7593 99.13 48.0219 97.9624 47.991C96.8322 47.9733 95.5941 47.7593 94.7768 46.9098C94.3122 46.435 94.1985 45.8328 94.0818 45.2141L94.0818 45.2141L94.0818 45.2141L94.0817 45.2141L94.0817 45.2141L94.0817 45.2141L94.0817 45.2141L94.0817 45.214C94.0628 45.1139 94.0439 45.0134 94.0233 44.9129C94.7261 44.8997 95.4289 44.8952 96.1294 44.9019C96.1762 45.0012 96.216 45.1011 96.255 45.1988L96.255 45.1988L96.255 45.1988C96.3994 45.5611 96.5314 45.8924 96.96 46.047C97.7223 46.3008 98.8128 46.3714 99.5178 45.9301C99.8895 45.6526 99.8606 45.2808 99.8302 44.8894C99.8216 44.7798 99.813 44.6687 99.813 44.5576C99.1085 44.2115 98.3702 44.0606 97.652 43.9138C96.6993 43.719 95.7819 43.5315 95.0257 42.905C94.1951 42.2651 94.226 41.1684 94.552 40.266C94.9508 39.3613 95.9047 38.8074 96.8521 38.6574ZM80.4062 38.8229L80.4241 38.8226C81.0945 38.8117 81.767 38.8007 82.4374 38.7854C82.4704 41.773 82.4947 44.7717 82.4242 47.7571C81.7522 47.7417 81.0803 47.7284 80.4062 47.7152C80.4282 44.7518 80.4282 41.7863 80.4062 38.8229ZM86.5439 38.8118C85.8808 38.8162 85.2199 38.814 84.5567 38.8052C84.5164 39.7594 84.5261 40.712 84.5358 41.6649C84.542 42.2743 84.5482 42.8838 84.5413 43.494C84.5438 43.898 84.5408 44.3005 84.5379 44.7023V44.7024V44.7024V44.7024V44.7024V44.7024V44.7024C84.5304 45.7252 84.5229 46.7438 84.6052 47.7703C84.7863 47.744 85.0118 47.7508 85.248 47.7578C85.7272 47.7721 86.2503 47.7877 86.5351 47.532C86.5587 46.8005 86.5527 46.0686 86.5467 45.3367C86.5388 44.3641 86.5308 43.3914 86.5924 42.4195C87.1276 43.2431 87.6992 44.0412 88.2708 44.8392L88.2708 44.8392L88.2709 44.8392C88.7604 45.5227 89.2498 46.206 89.7163 46.9053C89.7638 46.9658 89.8112 47.0317 89.8598 47.0993C90.0257 47.3299 90.2053 47.5797 90.4456 47.6975C90.9475 47.7645 91.4649 47.7483 91.9753 47.7324C92.1034 47.7284 92.231 47.7244 92.3578 47.7217C92.349 44.7562 92.349 41.7884 92.3578 38.8228C91.6771 38.814 90.9963 38.8162 90.3178 38.8206C90.3222 40.5571 90.3244 42.2937 90.3046 44.028C89.3616 42.8048 88.469 41.5379 87.5773 40.2721L87.5773 40.2721C87.2337 39.7843 86.8902 39.2967 86.5439 38.8118ZM103.287 38.8162L105.194 38.8181L105.194 38.8181C107.099 38.8202 109.003 38.8223 110.908 38.8206C110.904 39.1066 110.902 39.3927 110.899 39.679C110.896 39.9625 110.893 40.2463 110.89 40.5307C109.963 40.5373 109.037 40.5373 108.11 40.5218C108.098 41.4111 108.106 42.3022 108.114 43.1937V43.1939V43.1941V43.1943V43.1945V43.1947C108.128 44.7139 108.141 46.2341 108.059 47.7482C107.392 47.735 106.724 47.7306 106.054 47.7284C106.092 45.796 106.082 43.8623 106.072 41.9283V41.9281C106.07 41.4593 106.067 40.9906 106.065 40.5218L106.064 40.5218C105.131 40.5285 104.197 40.5351 103.263 40.5373C103.274 39.9639 103.281 39.3904 103.287 38.817V38.817V38.817V38.8169V38.8169V38.8169L103.287 38.8162ZM112.804 38.7948C112.682 38.7949 112.56 38.7949 112.439 38.7941C112.454 40.6835 112.453 42.5738 112.451 44.4639V44.4639V44.464V44.4641V44.4641C112.451 45.5582 112.45 46.6523 112.452 47.746C113.144 47.7372 113.836 47.7328 114.53 47.7328C114.493 46.4304 114.502 45.1224 114.511 43.8144V43.8143V43.8143V43.8143V43.8142V43.8141C114.522 42.1637 114.534 40.5131 114.452 38.8736C113.912 38.7941 113.355 38.7945 112.804 38.7948ZM116.072 38.803C118.61 38.8295 121.15 38.8317 123.686 38.8052C123.686 39.3811 123.683 39.9548 123.679 40.5285C122.747 40.5307 121.813 40.5351 120.881 40.5395C120.903 42.9336 120.916 45.3299 120.879 47.724L120.873 47.7241C120.232 47.7329 119.588 47.7417 118.945 47.7615C118.808 46.2823 118.827 44.7869 118.846 43.2928C118.858 42.3755 118.87 41.4586 118.845 40.5462C117.918 40.5307 116.99 40.5241 116.063 40.5395C116.063 39.9592 116.065 39.3811 116.072 38.803ZM127.235 38.8052C126.569 38.8119 125.906 38.8163 125.243 38.8141C125.247 39.6718 125.245 40.5303 125.242 41.3888V41.3888V41.3889C125.239 42.5335 125.236 43.6779 125.248 44.8202C125.23 45.9345 125.897 46.9098 126.854 47.4349C128.16 48.141 129.819 48.1763 131.176 47.5916C132.282 47.0995 133.073 46.0603 133.062 44.8202C133.074 43.9127 133.07 43.0048 133.066 42.0966V42.0964V42.0962C133.061 41.0061 133.057 39.9156 133.079 38.8251C132.419 38.8141 131.758 38.8008 131.099 38.781C131.045 39.7518 131.051 40.7233 131.057 41.6943V41.6944V41.6945C131.062 42.5177 131.066 43.3406 131.035 44.1627C131.031 44.2041 131.028 44.2468 131.024 44.2903C130.982 44.7768 130.931 45.3738 130.577 45.7161C130.035 46.3118 129.094 46.3228 128.372 46.1353C127.746 45.9455 127.385 45.4071 127.325 44.7672C127.2 43.6661 127.225 42.5447 127.249 41.4235V41.4234V41.4234C127.268 40.5474 127.287 39.6714 127.235 38.8052ZM134.641 38.7941C137.151 38.8361 139.676 38.8383 142.185 38.7941C142.223 39.1733 142.255 39.5524 142.288 39.9315L142.288 39.9329C142.304 40.1226 142.32 40.3123 142.337 40.502C141.379 40.5461 140.422 40.5439 139.462 40.513C139.45 41.7167 139.452 42.9198 139.455 44.1229C139.458 45.326 139.461 46.5291 139.449 47.7328C138.792 47.7394 138.136 47.7504 137.479 47.7681C137.403 46.0966 137.417 44.4209 137.432 42.7469C137.439 42.0077 137.445 41.2688 137.444 40.5307C136.501 40.5373 135.556 40.5373 134.613 40.5263C134.622 39.9481 134.63 39.37 134.641 38.7941ZM146.227 38.819C145.423 38.816 144.62 38.8129 143.815 38.8185C143.819 41.784 143.817 44.7518 143.813 47.7174C145.045 47.7364 146.276 47.7344 147.507 47.7325C148.705 47.7306 149.902 47.7287 151.101 47.7461L151.101 47.7235C151.114 47.1595 151.127 46.5934 151.143 46.0294C150.024 46.0028 148.906 46.0055 147.787 46.0082C147.143 46.0098 146.499 46.0114 145.855 46.0073C145.855 45.3542 145.855 44.7011 145.857 44.0479C147.34 44.0413 148.823 44.0391 150.305 44.0524C150.314 43.4787 150.323 42.905 150.334 42.3313C149.193 42.3009 148.051 42.3041 146.91 42.3072C146.559 42.3082 146.208 42.3092 145.857 42.3092C145.857 41.7156 145.86 41.1221 145.866 40.5285C147.576 40.5352 149.288 40.5374 150.997 40.5352C150.997 40.4517 150.998 40.368 150.999 40.284C151.002 39.8196 151.006 39.3488 150.957 38.8891C150.533 38.8029 150.08 38.8059 149.645 38.8089C149.601 38.8092 149.558 38.8094 149.514 38.8096C148.418 38.8275 147.322 38.8233 146.227 38.819Z" fill="black"/>
<path fill-rule="evenodd" clip-rule="evenodd" d="M96.2817 13.4144C96.2817 17.957 92.8184 21.8532 88.7087 21.8532C84.3795 21.8532 81.1356 17.957 81.1356 13.4144C81.1356 8.6553 84.3795 4.97555 88.7087 4.97555C92.8184 4.97555 96.2817 8.6553 96.2817 13.4144ZM88.7087 0C81.1356 0 75.0778 6.05783 75.0778 13.4144C75.0778 20.771 81.1356 26.6123 88.7087 26.6123C96.0652 26.6123 102.123 20.771 102.123 13.4144C102.123 6.05783 96.0652 0 88.7087 0ZM116.4 26.1794V5.62489H124.406V0.865795H102.77V5.62489H110.776V26.1794H116.4ZM136.522 16.2254H140.202L136.738 6.92362H136.522L133.062 16.2254H136.522ZM131.33 20.338V20.5545L129.165 26.1794H122.458L133.062 0.865795H140.202L150.802 26.1794H144.095L141.717 20.5545V20.338H131.33ZM13.6308 26.1794V5.62489H21.6368V0.865795H0V5.62489H8.00593V26.1794H13.6308ZM36.1334 21.8532C40.2431 21.8532 43.7035 17.957 43.7035 13.4144C43.7035 8.6553 40.2431 4.97555 36.1334 4.97555C31.8043 4.97555 28.5604 8.6553 28.5604 13.4144C28.5604 17.957 31.8043 21.8532 36.1334 21.8532ZM22.5025 13.4144C22.5025 6.05783 28.5604 0 36.1334 0C43.487 0 49.5448 6.05783 49.5448 13.4144C49.5448 20.771 43.487 26.6123 36.1334 26.6123C28.5604 26.6123 22.5025 20.771 22.5025 13.4144ZM65.1238 26.1794H62.3128H59.2825V16.4418L49.3284 0.865795H56.0386L62.3128 11.4663L68.3707 0.865795H75.0779L65.1238 16.4418V26.1794Z" fill="black"/>
</svg>